<svg width="67px" height="67px" viewBox="0 0 67 67" version="1.1" xmlns="http://www.w3.org/2000/svg" xmlns:xlink="http://www.w3.org/1999/xlink">
    <!-- Generator: Sketch 47.1 (45422) - http://www.bohemiancoding.com/sketch -->
    <desc>Created with Sketch.</desc>
    <defs></defs>
    <g id="Page-1" stroke="none" stroke-width="1" fill="none" fill-rule="evenodd">
        <g id="TAT-Desktop-Main" transform="translate(-95.000000, -261.000000)" fill="#FFFFFF">
            <g id="Group-5" transform="translate(95.000000, 261.000000)">
                <g id="Page-1">
                    <path d="M22.3020911,0 L22.3020911,9.125 L0,9.125 L0,11.0471154 L9.12239688,11.0471154 L9.21805596,67 L57.781944,67 L57.8795356,11.0375 L67,11.0375 L67,9.11538462 L44.6988751,9.11538462 L44.6988751,0 L22.3020911,0 Z M24.2345976,9.125 L42.7673349,9.125 L42.7673349,1.92307692 L24.2345976,1.92307692 L24.2345976,9.125 Z M11.0635997,11.0375 L55.9364003,11.0375 L55.8494376,65.0769231 L11.1505624,65.0769231 L11.0635997,11.0375 Z" id="Fill-1"></path>
                    <polygon id="Fill-2" points="32 56 34 56 34 22 32 22"></polygon>
                    <polygon id="Fill-3" points="22 56 24 56 24 22 22 22"></polygon>
                    <polygon id="Fill-4" points="43 56 45 56 45 22 43 22"></polygon>
                </g>
            </g>
        </g>
    </g>
</svg>
