 <svg version="1.0" xmlns="http://www.w3.org/2000/svg" width="700.000000pt" height="700.000000pt" viewBox="0 0 700.000000 700.000000" preserveAspectRatio="xMidYMid meet">
<metadata>
Created by potrace 1.12, written by Peter Selinger 2001-2015
</metadata>
<g transform="translate(0.000000,700.000000) scale(0.100000,-0.100000)" fill="#000000" stroke="none">
<path d="M0 3500 l0 -3500 3500 0 3500 0 0 3500 0 3500 -3500 0 -3500 0 0
-3500z m5138 1717 c14 -11 42 -72 42 -90 0 -5 -345 -354 -766 -776 -422 -421
-782 -785 -801 -808 l-35 -43 45 -53 c25 -28 383 -390 796 -804 529 -530 751
-758 751 -773 0 -48 -54 -100 -102 -100 -6 0 -359 349 -786 776 -427 426 -788
782 -803 789 -15 8 -29 21 -32 30 -8 20 -26 19 -34 -2 -4 -10 -361 -372 -793
-805 -880 -881 -814 -825 -884 -748 -20 22 -36 48 -36 58 0 17 1544 1571 1598
1608 12 8 22 19 22 24 0 5 -362 371 -805 813 -549 549 -805 811 -805 826 0 11
14 36 31 56 63 72 4 123 891 -765 l799 -801 26 23 c23 20 574 560 625 613 101
103 903 906 936 936 38 35 47 40 75 34 18 -4 38 -12 45 -18z m-1654 -58 c32
-15 42 -43 56 -159 7 -52 21 -117 31 -145 11 -27 26 -95 35 -150 8 -55 25
-134 38 -175 13 -41 27 -101 31 -133 9 -76 -7 -97 -75 -97 -90 0 -130 30 -130
98 0 30 -25 72 -42 72 -27 0 -68 -44 -83 -89 -23 -71 -42 -85 -110 -79 -86 7
-92 18 -72 125 10 48 21 122 27 163 5 41 18 98 29 127 11 28 27 96 35 150 8
54 24 123 34 153 10 30 22 72 26 93 6 30 14 42 39 53 34 15 89 12 131 -7z
m-1253 -1148 c16 -13 23 -29 23 -55 0 -46 -22 -68 -76 -75 -41 -6 -43 -8 -50
-46 -4 -22 -7 -182 -7 -355 -1 -378 2 -365 -99 -357 -102 8 -96 -15 -102 375
-3 185 -9 344 -13 353 -4 8 -23 21 -41 27 -49 18 -68 43 -64 88 5 59 23 64
229 64 158 0 179 -2 200 -19z m2853 6 c13 -9 19 -27 20 -56 1 -36 -4 -47 -27
-65 -15 -11 -40 -31 -55 -43 l-27 -21 -5 -332 -5 -332 -28 -24 c-21 -18 -40
-24 -73 -24 -56 0 -84 25 -85 78 0 20 -2 174 -3 342 -1 168 -5 311 -9 318 -5
6 -23 12 -40 12 -56 0 -77 23 -77 84 0 28 5 57 12 64 18 18 378 17 402 -1z
m-1480 -1416 c15 -16 16 -25 6 -63 -7 -23 -27 -70 -46 -104 -19 -33 -34 -67
-34 -76 0 -8 -13 -34 -29 -59 -15 -25 -34 -62 -40 -82 -7 -21 -28 -67 -47
-103 -19 -36 -34 -71 -34 -78 0 -6 -21 -32 -46 -56 l-45 -45 -25 28 c-28 33
-29 49 -9 108 19 55 93 209 110 229 7 8 20 39 29 67 10 29 22 56 28 59 6 4 25
39 43 79 47 103 100 139 139 96z m-503 -131 c26 -15 25 -62 -4 -96 -13 -14
-43 -36 -67 -48 -40 -19 -45 -25 -48 -59 -4 -47 6 -60 59 -77 92 -31 110 -140
23 -140 -25 0 -163 84 -218 133 -65 57 -66 91 -6 152 24 25 60 52 79 61 20 9
45 25 56 35 25 22 76 49 93 49 7 0 22 -5 33 -10z m739 -10 c21 -11 42 -24 45
-30 4 -6 26 -20 50 -31 54 -26 125 -100 125 -131 -1 -45 -54 -103 -135 -147
-22 -12 -55 -33 -74 -46 -90 -66 -164 18 -79 90 16 14 42 28 56 31 40 10 52
23 52 58 0 42 -8 52 -62 76 -81 35 -113 102 -66 134 29 21 41 20 88 -4z"></path>
<path d="M3416 4771 c-4 -6 -4 -21 0 -35 4 -17 -1 -37 -15 -59 -28 -45 -26
-65 5 -77 51 -20 80 21 52 73 -6 12 -11 36 -10 53 1 33 -21 64 -32 45z"></path>
</g>
</svg>
