
<svg width="67px" height="36px" viewBox="0 0 67 36" version="1.1" xmlns="http://www.w3.org/2000/svg" xmlns:xlink="http://www.w3.org/1999/xlink">
    <!-- Generator: Sketch 47.1 (45422) - http://www.bohemiancoding.com/sketch -->
    <desc>Created with Sketch.</desc>
    <defs></defs>
    <g id="Page-1" stroke="none" stroke-width="1" fill="none" fill-rule="evenodd">
        <g id="lid" transform="translate(1.000000, 1.000000)" stroke="#FFFFFF" stroke-width="0.5" fill="#FFFFFF" fill-rule="nonzero">
            <path d="M31.6353678,34 C32.0422535,34 32.3474178,34 32.7543036,34 C43.7402191,34 54.4209703,28.6018016 64.3896714,18.0170988 C64.7965571,17.8054048 65,17.4878637 65,17.0644756 L65,16.9586285 C65,16.5352404 64.7965571,16.1118523 64.3896714,16.0060053 C54.0140845,4.99791439 43.028169,-0.400284025 31.6353678,0.0231040862 C14.7496088,0.552339225 2.74647887,13.5715236 0.610328638,16.0060053 C0.305164319,16.2176993 0,16.5352404 0,16.9586285 L0,17.0644756 C0,17.4878637 0.203442879,17.8054048 0.610328638,18.0170988 C2.74647887,20.4515804 14.7496088,33.3649178 31.6353678,34 Z M31.7370892,2.14004464 C42.4178404,1.82250356 52.7934272,6.79731386 62.5586854,16.9586285 C52.7934272,27.1199432 42.4178404,32.2006005 31.7370892,31.7772124 C16.5805947,31.2479773 5.18779343,19.9223453 2.44131455,16.9586285 C5.18779343,13.9949118 16.5805947,2.66927978 31.7370892,2.14004464 Z" id="Shape"></path>
        </g>
        <g id="iris" transform="translate(1.000000, 1.000000)" stroke="#FFFFFF" stroke-width="0.5" fill="#FFFFFF" fill-rule="nonzero">
            <path d="M31.5,29 C37.8772727,29 43,23.8772727 43,17.5 C43,11.1227273 37.8772727,6 31.5,6 C25.1227273,6 20,11.1227273 20,17.5 C20,23.8772727 25.1227273,29 31.5,29 Z M31.5,8.09090909 C36.7272727,8.09090909 40.9090909,12.2727273 40.9090909,17.5 C40.9090909,22.7272727 36.7272727,26.9090909 31.5,26.9090909 C26.2727273,26.9090909 22.0909091,22.7272727 22.0909091,17.5 C22.0909091,12.2727273 26.2727273,8.09090909 31.5,8.09090909 Z" id="Shape"></path>
        </g>
    </g>
</svg>
